<?xml version="1.0" encoding="UTF-8"?>
<svg width="16px" height="16px" viewBox="0 0 16 16" version="1.1" xmlns="http://www.w3.org/2000/svg" xmlns:xlink="http://www.w3.org/1999/xlink">
    <title>Group</title>
    <g id="Page-1" stroke="none" stroke-width="1" fill="none" fill-rule="evenodd">
        <g id="Group-2" fill="#000000">
            <path d="M8,0 C12.418278,0 16,3.581722 16,8 C16,12.418278 12.418278,16 8,16 C3.581722,16 0,12.418278 0,8 C0,3.581722 3.581722,0 8,0 Z M8,0.888888889 C7.27011398,0.888888889 6.56591131,0.998852352 5.902384,1.20421165 C7.983663,2.74220093 9.33333333,5.21348427 9.33333333,8 C9.33333333,10.7869668 7.98322604,13.2585991 5.90204421,14.7965723 C6.5651953,15.0010358 7.26974292,15.1111111 8,15.1111111 C11.9273582,15.1111111 15.1111111,11.9273582 15.1111111,8 C15.1111111,4.07264178 11.9273582,0.888888889 8,0.888888889 Z" id="Combined-Shape"></path>
        </g>
    </g>
</svg>