<svg viewBox="0 0 300 300" xmlns="http://www.w3.org/2000/svg"><path d="M150 0C67.178 0 0 68.87 0 153.78c0 67.968 42.98 125.575 102.598 145.91 7.5 1.41 10.224-3.335 10.224-7.39 0-3.664-.146-15.798-.205-28.623-41.72 9.28-50.537-18.14-50.537-18.14-6.826-17.752-16.64-22.498-16.64-22.498-13.624-9.522 1.025-9.34 1.025-9.34 15.058 1.08 22.998 15.857 22.998 15.857 13.39 23.517 35.127 16.7 43.652 12.765 1.377-9.912 5.244-16.7 9.522-20.544-33.31-3.905-68.35-17.09-68.35-76.018 0-16.79 5.86-30.516 15.44-41.268-1.524-3.905-6.68-19.553 1.494-40.728 0 0 12.57-4.115 41.25 15.77 11.954-3.425 24.786-5.107 37.53-5.168 12.744.06 25.576 1.773 37.56 5.197 28.622-19.914 41.22-15.77 41.22-15.77 8.202 21.176 3.046 36.824 1.493 40.7 9.61 10.75 15.41 24.477 15.41 41.267 0 59.078-35.068 72.083-68.495 75.898 5.39 4.775 10.195 14.116 10.195 28.473 0 20.545-.205 37.124-.205 42.2 0 4.085 2.724 8.89 10.342 7.39C257.05 279.324 300 221.687 300 153.78 300 68.87 232.852 0 150 0z" fill="#3E3A3A" fill-rule="evenodd"/></svg>