<svg width="64" height="64" viewBox="0 0 64 64" fill="none" xmlns="http://www.w3.org/2000/svg">
<g clip-path="url(#clip0)">
<path fill-rule="evenodd" clip-rule="evenodd" d="M32 0C14.3313 0 0 14.6923 0 32.8064C0 47.3062 9.16907 59.5957 21.8876 63.9339C23.4876 64.2347 24.0687 63.2224 24.0687 62.3573C24.0687 61.5757 24.0375 58.9871 24.025 56.2511C15.1247 58.2308 13.2437 52.3812 13.2437 52.3812C11.7875 48.5941 9.69387 47.5817 9.69387 47.5817C6.78741 45.5503 9.91253 45.5891 9.91253 45.5891C13.1249 45.8195 14.8188 48.9719 14.8188 48.9719C17.6753 53.9889 22.3125 52.5346 24.1312 51.6951C24.425 49.5806 25.2499 48.1325 26.1626 47.3124C19.0564 46.4794 11.5812 43.6666 11.5812 31.0953C11.5812 27.5134 12.8314 24.5852 14.8751 22.2914C14.55 21.4583 13.45 18.1201 15.1938 13.6028C15.1938 13.6028 17.8754 12.7249 23.9938 16.967C26.544 16.2364 29.2815 15.8775 32.0002 15.8645C34.7189 15.8773 37.4564 16.2428 40.013 16.9732C46.119 12.7249 48.8066 13.609 48.8066 13.609C50.5564 18.1265 49.4564 21.4647 49.1251 22.2916C51.1753 24.585 52.4126 27.5134 52.4126 31.0953C52.4126 43.6986 44.9314 46.473 37.8003 47.2868C38.9502 48.3055 39.9753 50.2982 39.9753 53.3611C39.9753 57.744 39.9315 61.2809 39.9315 62.3637C39.9315 63.2352 40.5126 64.2603 42.1378 63.9403C54.8373 59.5891 64 47.2932 64 32.8064C64 14.6923 49.6751 0 32 0Z" fill="#3E3A3A"/>
</g>
<defs>
<clipPath id="clip0">
<rect width="64" height="64" fill="white"/>
</clipPath>
</defs>
</svg>
