<svg width="64" height="64" viewBox="0 0 64 64" fill="none" xmlns="http://www.w3.org/2000/svg">
<path fill-rule="evenodd" clip-rule="evenodd" d="M32 61.477L43.784 25.2H20.216L32 61.477Z" fill="#3E3A3A"/>
<path fill-rule="evenodd" clip-rule="evenodd" d="M32 61.477L20.216 25.2H3.7L32 61.477Z" fill="#6D6B6B"/>
<path fill-rule="evenodd" clip-rule="evenodd" d="M3.7 25.2L0.119998 36.23C-0.0392707 36.72 -0.0393293 37.2479 0.11983 37.7379C0.27899 38.228 0.589198 38.6551 1.006 38.958L32 61.477L3.7 25.2Z" fill="#9D9C9C"/>
<path fill-rule="evenodd" clip-rule="evenodd" d="M3.7 25.2H20.215L13.118 3.36601C12.753 2.24201 11.163 2.24201 10.798 3.36601L3.7 25.2Z" fill="#3E3A3A"/>
<path fill-rule="evenodd" clip-rule="evenodd" d="M32 61.477L43.784 25.2H60.3L32 61.477Z" fill="#6D6B6B"/>
<path fill-rule="evenodd" clip-rule="evenodd" d="M60.3 25.2L63.88 36.22C64.0393 36.71 64.0393 37.2379 63.8802 37.7279C63.721 38.218 63.4108 38.6451 62.994 38.948L32 61.477L60.3 25.2Z" fill="#9D9C9C"/>
<path fill-rule="evenodd" clip-rule="evenodd" d="M60.3 25.2H43.784L50.882 3.356C51.247 2.232 52.837 2.232 53.202 3.356L60.3 25.2Z" fill="#3E3A3A"/>
</svg>
