<svg viewBox="0 0 300 300" xmlns="http://www.w3.org/2000/svg"><g fill="none" fill-rule="evenodd"><circle fill="#3E3A3A" cx="150" cy="150" r="150"/><path d="M154.4 159.3c14.3-2.8 21.4-12.6 30.8-20.1 15.1-12.8 30.2-25.6 45.3-38.3H69.8c20.4 17.4 40.8 34.9 61.2 52.3 5 3.5 14 8 23.4 6.1zm-35.9-7.9c-18.2-15.6-36.5-31.2-54.7-46.7v98.1h.5c17.4-16.4 34.9-32.7 52.3-49.1.6-.8 1.2-1.5 1.9-2.3zm63.5 0c15.3 14.3 30.5 28.7 45.8 43l8.4 8.4v-98.1c-18 15.5-36.1 31.1-54.2 46.7zm-47.7 11.2c-3.7-2.3-7.5-4.7-11.2-7-17.9 17-35.8 34-53.7 50.9-.2.3-.3.6-.5.9h162.6c-18.2-17.3-36.5-34.6-54.7-51.9-11.3 6.7-25.6 14.4-42.5 7.1z" fill="#FFF"/></g></svg>