<svg viewBox="0 0 300 300" xmlns="http://www.w3.org/2000/svg"><path d="M150 0C67.157 0 0 67.157 0 150s67.157 150 150 150 150-67.157 150-150S232.843 0 150 0zm75.436 124.155c2.2 48.93-34.293 103.488-98.885 103.488-19.645 0-37.933-5.76-53.327-15.63 18.456 2.175 36.878-2.945 51.505-14.408-15.224-.28-28.073-10.338-32.5-24.16 5.452 1.042 10.815.737 15.71-.595-16.73-3.362-28.28-18.434-27.903-34.553 4.69 2.607 10.056 4.172 15.76 4.352C80.3 132.293 75.912 111.834 85.027 96.2c17.158 21.05 42.794 34.9 71.707 36.35-5.074-21.76 11.434-42.718 33.89-42.718 10.007 0 19.05 4.225 25.394 10.986 7.924-1.56 15.37-4.455 22.092-8.442-2.597 8.124-8.115 14.942-15.297 19.247 7.037-.84 13.743-2.71 19.98-5.478-4.663 6.978-10.56 13.106-17.36 18.01z" fill="#3E3A3A" fill-rule="evenodd"/></svg>